<svg width="40" height="41" viewBox="0 0 40 41" fill="none" xmlns="http://www.w3.org/2000/svg">
<path d="M39.5 20.5C39.5 31.2696 30.7696 40 20 40C9.23045 40 0.5 31.2696 0.5 20.5C0.5 9.73045 9.23045 1 20 1C30.7696 1 39.5 9.73045 39.5 20.5Z" fill="url(#paint0_linear_501_3889)" stroke="url(#paint1_linear_501_3889)"/>
<path d="M27 13.5L26.872 13.524L22.6 15.18L17.8 13.5L13.288 15.02C13.12 15.076 13 15.22 13 15.404V27.5C13 27.724 13.176 27.9 13.4 27.9L13.528 27.876L17.8 26.22L22.6 27.9L27.112 26.38C27.28 26.324 27.4 26.18 27.4 25.996V13.9C27.4 13.676 27.224 13.5 27 13.5ZM22.6 26.3L17.8 24.612V15.1L22.6 16.788V26.3Z" fill="#F2F2F2"/>
<defs>
<linearGradient id="paint0_linear_501_3889" x1="0" y1="0.5" x2="65.8548" y2="30.2112" gradientUnits="userSpaceOnUse">
<stop offset="0.0291665" stop-color="#252627"/>
<stop offset="0.898958" stop-color="#2F2F33"/>
</linearGradient>
<linearGradient id="paint1_linear_501_3889" x1="20" y1="0.5" x2="20" y2="40.5" gradientUnits="userSpaceOnUse">
<stop stop-color="#39393C"/>
<stop offset="1" stop-color="#373738"/>
</linearGradient>
</defs>
</svg>
