<svg width="50" height="50" viewBox="0 0 50 50" fill="none" xmlns="http://www.w3.org/2000/svg">
<g clip-path="url(#clip0_774_5667)">
<path d="M49.5 25C49.5 38.531 38.531 49.5 25 49.5C11.469 49.5 0.5 38.531 0.5 25C0.5 11.469 11.469 0.5 25 0.5C38.531 0.5 49.5 11.469 49.5 25Z" fill="url(#paint0_linear_774_5667)" stroke="url(#paint1_linear_774_5667)"/>
<path fill-rule="evenodd" clip-rule="evenodd" d="M25 12.3256C28.4418 12.3256 28.8744 12.3395 30.2256 12.4023C31.2771 12.4224 32.3175 12.6214 33.3023 12.9907C34.1439 13.317 34.9083 13.8151 35.5465 14.4534C36.1848 15.0917 36.683 15.856 37.0093 16.6977C37.3778 17.6802 37.5767 18.7182 37.5977 19.7674C37.6604 21.1186 37.6744 21.5511 37.6744 24.993C37.6744 28.4349 37.6604 28.8674 37.5977 30.2186C37.5775 31.2701 37.3786 32.3106 37.0093 33.2953C36.683 34.137 36.1848 34.9013 35.5465 35.5396C34.9083 36.1778 34.1439 36.676 33.3023 37.0023C32.3202 37.3732 31.2821 37.5745 30.2325 37.5977C28.8814 37.6604 28.4488 37.6744 25.007 37.6744C21.5651 37.6744 21.1325 37.6604 19.7814 37.5977C18.7298 37.5775 17.6894 37.3786 16.7046 37.0093C15.863 36.683 15.0987 36.1848 14.4604 35.5465C13.8221 34.9083 13.3239 34.1439 12.9977 33.3023C12.6268 32.3202 12.4254 31.2821 12.4023 30.2325C12.3395 28.8814 12.3256 28.4488 12.3256 25.007C12.3256 21.5651 12.3395 21.1325 12.4023 19.7814C12.4224 18.7298 12.6214 17.6894 12.9907 16.7046C13.3161 15.8617 13.814 15.096 14.4523 14.4565C15.0906 13.817 15.8554 13.3177 16.6977 12.9907C17.6802 12.6222 18.7182 12.4232 19.7674 12.4023C21.1256 12.3395 21.5581 12.3256 25 12.3256ZM30.1163 14.6837C28.7814 14.6232 28.379 14.6093 25 14.6093C21.6209 14.6093 21.2139 14.6232 19.8837 14.6837C19.0787 14.6919 18.2811 14.8383 17.5256 15.1163C16.978 15.3274 16.4807 15.6508 16.0658 16.0658C15.6508 16.4807 15.3274 16.978 15.1163 17.5256C14.838 18.2795 14.6909 19.0755 14.6814 19.8791C14.6209 21.2139 14.607 21.6163 14.607 24.9953C14.607 28.3744 14.6209 28.7814 14.6814 30.1116C14.6898 30.9183 14.8369 31.7176 15.1163 32.4744C15.3274 33.022 15.6508 33.5192 16.0658 33.9342C16.4807 34.3491 16.978 34.6726 17.5256 34.8837C18.2795 35.162 19.0755 35.3091 19.8791 35.3186C21.2139 35.379 21.6163 35.393 24.9953 35.393C28.3744 35.393 28.7814 35.379 30.1116 35.3186C30.9183 35.3101 31.7176 35.163 32.4744 34.8837C33.022 34.6726 33.5192 34.3491 33.9342 33.9342C34.3491 33.5192 34.6726 33.022 34.8837 32.4744C35.162 31.7205 35.3091 30.9245 35.3186 30.1209C35.379 28.786 35.393 28.3837 35.393 25.0046C35.393 21.6256 35.379 21.2186 35.3186 19.8884C35.3101 19.0816 35.163 18.2824 34.8837 17.5256C34.6726 16.978 34.3491 16.4807 33.9342 16.0658C33.5192 15.6508 33.022 15.3274 32.4744 15.1163C31.7204 14.8388 30.9243 14.6925 30.1209 14.6837H30.1163ZM25 29.2256C25.8357 29.2256 26.6527 28.9777 27.3476 28.5134C28.0425 28.0491 28.5841 27.3892 28.9039 26.617C29.2237 25.8449 29.3074 24.9953 29.1444 24.1756C28.9813 23.3559 28.5789 22.603 27.9879 22.012C27.397 21.4211 26.644 21.0186 25.8244 20.8556C25.0047 20.6925 24.155 20.7762 23.3829 21.0961C22.6108 21.4159 21.9509 21.9575 21.4865 22.6524C21.0222 23.3473 20.7744 24.1642 20.7744 25C20.775 26.1205 21.2204 27.1949 22.0127 27.9872C22.805 28.7796 23.8795 29.2249 25 29.2256V29.2256ZM25 18.4907C26.2879 18.4907 27.5468 18.8726 28.6176 19.5881C29.6885 20.3036 30.5231 21.3206 31.0159 22.5104C31.5088 23.7003 31.6377 25.0095 31.3865 26.2727C31.1352 27.5358 30.5151 28.6961 29.6044 29.6067C28.6937 30.5174 27.5335 31.1376 26.2703 31.3888C25.0072 31.6401 23.6979 31.5111 22.5081 31.0183C21.3182 30.5254 20.3013 29.6908 19.5858 28.62C18.8703 27.5491 18.4884 26.2902 18.4884 25.0023C18.4884 23.2753 19.1744 21.6191 20.3956 20.3979C21.6167 19.1767 23.273 18.4907 25 18.4907V18.4907ZM33.286 18.2349C33.286 18.5357 33.1968 18.8297 33.0297 19.0798C32.8626 19.33 32.625 19.5249 32.3471 19.64C32.0692 19.7551 31.7634 19.7853 31.4684 19.7266C31.1733 19.6679 30.9023 19.523 30.6896 19.3103C30.4769 19.0976 30.3321 18.8266 30.2734 18.5316C30.2147 18.2366 30.2448 17.9307 30.3599 17.6528C30.4751 17.3749 30.67 17.1374 30.9201 16.9703C31.1702 16.8031 31.4643 16.7139 31.7651 16.7139C32.1685 16.7139 32.5553 16.8742 32.8406 17.1594C33.1258 17.4446 33.286 17.8315 33.286 18.2349V18.2349Z" fill="#EAEAEA"/>
</g>
<defs>
<linearGradient id="paint0_linear_774_5667" x1="0" y1="0" x2="82.3185" y2="37.139" gradientUnits="userSpaceOnUse">
<stop offset="0.0291665" stop-color="#252627"/>
<stop offset="0.898958" stop-color="#2F2F33"/>
</linearGradient>
<linearGradient id="paint1_linear_774_5667" x1="25" y1="0" x2="25" y2="50" gradientUnits="userSpaceOnUse">
<stop stop-color="#39393C"/>
<stop offset="1" stop-color="#373738"/>
</linearGradient>
<clipPath id="clip0_774_5667">
<rect width="50" height="50" fill="white"/>
</clipPath>
</defs>
</svg>
