<svg width="50" height="50" viewBox="0 0 50 50" fill="none" xmlns="http://www.w3.org/2000/svg">
<path d="M49.5 25C49.5 38.531 38.531 49.5 25 49.5C11.469 49.5 0.5 38.531 0.5 25C0.5 11.469 11.469 0.5 25 0.5C38.531 0.5 49.5 11.469 49.5 25Z" fill="url(#paint0_linear_774_5655)" stroke="url(#paint1_linear_774_5655)"/>
<path d="M34.5046 15.5421C33.8651 14.949 31.272 13.0676 25.4976 13.0421C25.4976 13.0421 18.6883 12.6304 15.3697 15.677C13.5092 17.5235 12.872 20.2281 12.8116 23.5839C12.7511 26.9397 12.6534 33.2188 18.7116 34.9235V37.5235C18.7116 37.5235 18.672 38.5746 19.3651 38.7909C20.2023 39.049 20.6953 38.249 21.4953 37.3956C21.9348 36.9304 22.5418 36.2328 22.9976 35.6956C27.1418 36.0444 30.3255 35.2467 30.6883 35.1281C31.5255 34.8583 36.2581 34.2514 37.0278 27.9677C37.8139 21.4839 36.6348 17.3886 34.5046 15.5421ZM35.2023 27.4956C34.5534 32.7397 30.7139 33.077 30.0069 33.2979C27.8429 33.8256 25.6103 34.0154 23.3883 33.8607C23.3883 33.8607 20.772 37.0235 19.9534 37.8467C19.9074 37.9011 19.8489 37.9435 19.7828 37.9702C19.7168 37.997 19.6453 38.0073 19.5744 38.0002C19.4348 37.9653 19.3953 37.8002 19.3976 37.556C19.3976 37.2072 19.4185 33.2351 19.4185 33.2351C14.3023 31.8118 14.5953 26.4653 14.6534 23.6653C14.7116 20.8653 15.2372 18.57 16.7999 17.0281C19.6069 14.4839 25.3906 14.8653 25.3906 14.8653C30.2744 14.8863 32.6162 16.356 33.1581 16.849C34.9604 18.3932 35.879 22.0839 35.2069 27.4932L35.2023 27.4956Z" fill="#EAEAEA"/>
<path d="M27.8743 23.7597C27.7907 23.7599 27.7103 23.7278 27.6497 23.6702C27.5891 23.6127 27.5529 23.534 27.5487 23.4505C27.4929 22.3415 26.972 21.7975 25.9069 21.7417C25.8205 21.7374 25.7394 21.699 25.6814 21.6349C25.6234 21.5708 25.5933 21.4863 25.5976 21.4C25.6019 21.3136 25.6403 21.2326 25.7044 21.1746C25.7686 21.1166 25.8531 21.0864 25.9394 21.0907C27.3348 21.1651 28.1278 21.9696 28.1999 23.4157C28.2037 23.5019 28.1734 23.5861 28.1155 23.6501C28.0576 23.714 27.9768 23.7526 27.8906 23.7574L27.8743 23.7597Z" fill="#EAEAEA"/>
<path d="M29.5488 24.3234C29.4622 24.321 29.3801 24.2844 29.3204 24.2217C29.2607 24.1589 29.2283 24.0751 29.2302 23.9885C29.2595 23.4864 29.1885 22.9834 29.0212 22.509C28.8539 22.0346 28.5937 21.5984 28.2557 21.2257C27.5767 20.4839 26.6464 20.0816 25.4116 19.9909C25.3688 19.9878 25.3271 19.9764 25.2887 19.9572C25.2504 19.938 25.2162 19.9114 25.1881 19.8791C25.1601 19.8467 25.1387 19.8091 25.1251 19.7684C25.1116 19.7277 25.1062 19.6848 25.1092 19.642C25.1123 19.5993 25.1237 19.5575 25.1429 19.5192C25.1621 19.4809 25.1886 19.4467 25.221 19.4186C25.2534 19.3905 25.291 19.3691 25.3317 19.3556C25.3724 19.342 25.4153 19.3366 25.4581 19.3397C26.8534 19.4397 27.9511 19.9281 28.7371 20.7862C29.1306 21.2204 29.4345 21.728 29.6312 22.28C29.828 22.8319 29.9138 23.4173 29.8836 24.0025C29.8827 24.0455 29.8734 24.088 29.856 24.1275C29.8387 24.1669 29.8138 24.2025 29.7827 24.2323C29.7516 24.2621 29.7149 24.2855 29.6748 24.3011C29.6347 24.3168 29.5918 24.3243 29.5488 24.3234Z" fill="#EAEAEA"/>
<path d="M31.2649 24.9938C31.179 24.9938 31.0965 24.9598 31.0355 24.8993C30.9745 24.8387 30.94 24.7565 30.9394 24.6705C30.9231 22.7006 30.3324 21.133 29.1812 20.0189C28.6081 19.4613 27.9301 19.0228 27.1864 18.729C26.4427 18.4352 25.6481 18.2918 24.8487 18.3071C24.7668 18.3002 24.6904 18.2628 24.6348 18.2023C24.5792 18.1418 24.5483 18.0626 24.5483 17.9804C24.5483 17.8982 24.5792 17.819 24.6348 17.7584C24.6904 17.6979 24.7668 17.6605 24.8487 17.6536C25.7316 17.6349 26.6094 17.7916 27.4313 18.1146C28.2533 18.4376 29.003 18.9204 29.637 19.5352C30.9184 20.7841 31.5742 22.5075 31.5905 24.6519C31.5911 24.6948 31.5832 24.7373 31.5673 24.7771C31.5513 24.8168 31.5276 24.853 31.4975 24.8835C31.4674 24.914 31.4316 24.9383 31.392 24.9548C31.3525 24.9714 31.3101 24.9799 31.2673 24.9799L31.2649 24.9938Z" fill="#EAEAEA"/>
<path d="M25.9883 27.8103C26.1169 27.8184 26.2459 27.7988 26.3662 27.7526C26.4866 27.7065 26.5957 27.6349 26.6859 27.5428L27.1697 26.9381C27.3357 26.7543 27.5613 26.6348 27.8067 26.6008C28.0521 26.5668 28.3017 26.6203 28.5115 26.7521C28.9236 26.9855 29.3234 27.2401 29.7092 27.5149C30.072 27.7847 30.8185 28.4057 30.8208 28.4057C30.9941 28.5491 31.1096 28.7503 31.1459 28.9722C31.1822 29.1941 31.137 29.4217 31.0185 29.6128C30.7511 30.0751 30.412 30.4919 30.0138 30.8478C29.7292 31.1074 29.3754 31.2787 28.9952 31.3409C28.9458 31.3467 28.8958 31.3467 28.8464 31.3409C28.6995 31.3418 28.5535 31.319 28.4138 31.2734V31.2571C27.8999 31.1129 27.0417 30.7501 25.6231 29.9617C24.7917 29.521 23.9997 29.0098 23.2557 28.4336C22.8849 28.1447 22.5316 27.834 22.1976 27.5033L22.1603 27.4684L22.1255 27.4312L22.0906 27.3963L22.0534 27.3614C21.7239 27.0263 21.4133 26.673 21.1231 26.3032C20.5352 25.5659 20.0108 24.7801 19.5557 23.9541C18.7673 22.5261 18.3929 21.6702 18.2603 21.1632H18.2441C18.1993 21.0234 18.1773 20.8773 18.179 20.7306C18.1731 20.6811 18.1731 20.6312 18.179 20.5817C18.2399 20.1915 18.4137 19.8277 18.679 19.5351C19.0347 19.1368 19.4515 18.7977 19.9138 18.5304C20.1045 18.4122 20.3313 18.367 20.5527 18.4029C20.774 18.4388 20.975 18.5534 21.1185 18.7257C21.1185 18.7257 21.7417 19.4746 22.0092 19.8375C22.2766 20.2003 22.558 20.612 22.7906 21.0236C22.9214 21.2338 22.9744 21.4831 22.9404 21.7283C22.9065 21.9735 22.7876 22.199 22.6045 22.3656L21.9976 22.847C21.9059 22.9375 21.8348 23.0467 21.7891 23.1671C21.7433 23.2874 21.724 23.4163 21.7324 23.5448C21.7324 23.5448 22.6324 26.9521 25.9883 27.8103Z" fill="#EAEAEA"/>
<defs>
<linearGradient id="paint0_linear_774_5655" x1="0" y1="0" x2="82.3185" y2="37.139" gradientUnits="userSpaceOnUse">
<stop offset="0.0291665" stop-color="#252627"/>
<stop offset="0.898958" stop-color="#2F2F33"/>
</linearGradient>
<linearGradient id="paint1_linear_774_5655" x1="25" y1="0" x2="25" y2="50" gradientUnits="userSpaceOnUse">
<stop stop-color="#39393C"/>
<stop offset="1" stop-color="#373738"/>
</linearGradient>
</defs>
</svg>
