<svg width="50" height="50" viewBox="0 0 50 50" fill="none" xmlns="http://www.w3.org/2000/svg">
<g clip-path="url(#clip0_774_5663)">
<path d="M49.5 25C49.5 38.531 38.531 49.5 25 49.5C11.469 49.5 0.5 38.531 0.5 25C0.5 11.469 11.469 0.5 25 0.5C38.531 0.5 49.5 11.469 49.5 25Z" fill="url(#paint0_linear_774_5663)" stroke="url(#paint1_linear_774_5663)"/>
<path d="M37.3325 18.6465C37.1851 18.0973 36.8959 17.5966 36.4938 17.1945C36.0918 16.7925 35.591 16.5032 35.0418 16.3558C33.0232 15.814 24.9186 15.814 24.9186 15.814C24.9186 15.814 16.8139 15.814 14.793 16.3558C14.2445 16.5045 13.7444 16.7942 13.3425 17.196C12.9406 17.5979 12.651 18.098 12.5023 18.6465C11.9604 20.6675 11.9604 24.8837 11.9604 24.8837C11.9604 24.8837 11.9604 29.1 12.5023 31.1209C12.651 31.6695 12.9406 32.1695 13.3425 32.5714C13.7444 32.9733 14.2445 33.263 14.793 33.4116C16.8139 33.9535 24.9186 33.9535 24.9186 33.9535C24.9186 33.9535 33.0209 33.9535 35.0418 33.4116C35.591 33.2642 36.0918 32.975 36.4938 32.5729C36.8959 32.1709 37.1851 31.6701 37.3325 31.1209C37.8744 29.1 37.8744 24.8837 37.8744 24.8837C37.8744 24.8837 37.8744 20.6675 37.3325 18.6465ZM22.3256 28.7698V20.9977L29.0697 24.8837L22.3256 28.7698Z" fill="#EAEAEA"/>
</g>
<defs>
<linearGradient id="paint0_linear_774_5663" x1="0" y1="0" x2="82.3185" y2="37.139" gradientUnits="userSpaceOnUse">
<stop offset="0.0291665" stop-color="#252627"/>
<stop offset="0.898958" stop-color="#2F2F33"/>
</linearGradient>
<linearGradient id="paint1_linear_774_5663" x1="25" y1="0" x2="25" y2="50" gradientUnits="userSpaceOnUse">
<stop stop-color="#39393C"/>
<stop offset="1" stop-color="#373738"/>
</linearGradient>
<clipPath id="clip0_774_5663">
<rect width="50" height="50" fill="white"/>
</clipPath>
</defs>
</svg>
