<svg width="222" height="54" viewBox="0 0 222 54" fill="none" xmlns="http://www.w3.org/2000/svg">
<g clip-path="url(#clip0_501_5406)">
<path d="M26.1635 9.67285V40.0279H24.5V10.6901L26.1635 9.67285Z" fill="white"/>
<path d="M29.9438 7.729V40.028H28.1289V8.74346L29.9438 7.729Z" fill="white"/>
<path fill-rule="evenodd" clip-rule="evenodd" d="M34.0049 1.03644L33.9496 1L33.876 1.03644V2.40293L34.0049 42.851H46.1445V42.8691H47.342V24.2302L54.1762 20.5863L54.2498 20.5498V42.8328H62.0051V23.6837L54.2314 19.2562V19.2927L54.2131 19.2562L54.1762 19.2745L54.1025 19.3108L47.3416 22.9331V8.65233L34.0049 1.03644ZM57.6392 40.5917H58.9287V29.0221L57.6392 28.2933V40.5917Z" fill="white"/>
<path fill-rule="evenodd" clip-rule="evenodd" d="M33.7655 1.03646L33.821 1L33.8763 1.03646V42.851L33.7472 2.38531L21.5995 9.33008V23.556L21.6183 23.5659V42.8691H21.5995H20.4201H20.4014V24.2487L13.5813 20.6131L13.5075 20.5766V42.8691H5.74707V23.6936L13.526 19.2643L13.5444 19.2459L13.5813 19.2643L13.655 19.3006L20.4014 22.9142V8.65566L33.7655 1.03646ZM10.0789 28.3052L8.78858 29.0343V40.609H10.0789V28.3052Z" fill="white"/>
<path fill-rule="evenodd" clip-rule="evenodd" d="M66.0086 43.2463C66.0513 43.3216 66.0935 43.3969 66.1351 43.4721C66.4111 43.981 66.6689 44.5079 66.8898 45.053H66.8906C66.9356 45.1701 66.9807 45.2887 67.0253 45.4084C67.054 45.4841 67.0826 45.5602 67.1113 45.636C67.1849 45.8314 67.2586 46.027 67.3322 46.218H67.3085C67.3104 46.2235 67.3124 46.2293 67.3142 46.235H1.97096C1.97085 46.2354 1.97072 46.2358 1.97061 46.2361C1.78657 46.7449 1.63931 47.2718 1.52883 47.8169H67.7189C67.7926 48.2171 67.8478 48.5989 67.9031 48.9989H1.32617C1.32612 48.9993 1.32607 48.9996 1.32602 49H7.70176e-06C5.78166e-05 48.9996 0.000107931 48.9993 0.000158046 48.9989H0C0.033992 48.6296 0.0993535 48.276 0.167135 47.9093L0.184169 47.8169H0.184406C0.294855 47.29 0.423709 46.763 0.589347 46.2361C0.58946 46.2358 0.589573 46.2354 0.589686 46.235H0.589682C0.590738 46.2318 0.591797 46.2284 0.592857 46.2252C0.720487 45.8295 0.848447 45.4512 1.01247 45.0552C1.01274 45.0545 1.01301 45.0537 1.01327 45.053H65.498C65.4955 45.0474 65.4929 45.0417 65.4906 45.0359C65.2511 44.5087 64.9749 43.9814 64.6618 43.4539C64.6615 43.4536 64.6613 43.4532 64.6611 43.453H1.76837C1.98937 43.0528 2.22879 42.6528 2.46821 42.271H65.4173C65.4213 42.2775 65.4255 42.2838 65.4296 42.2902H65.4353C65.5006 42.3943 65.5658 42.4997 65.6306 42.6061C65.7645 42.8198 65.8915 43.0314 66.0086 43.2463Z" fill="white"/>
</g>
<path d="M90.7637 6.35938H92.8262V16.9404C92.8262 18.1149 92.5648 19.0924 92.042 19.873C91.5192 20.6536 90.8245 21.2409 89.958 21.6348C89.0986 22.0215 88.1641 22.2148 87.1543 22.2148C86.0944 22.2148 85.1348 22.0215 84.2754 21.6348C83.4232 21.2409 82.7464 20.6536 82.2451 19.873C81.751 19.0924 81.5039 18.1149 81.5039 16.9404V6.35938H83.5557V16.9404C83.5557 17.7568 83.7061 18.43 84.0068 18.96C84.3076 19.4899 84.7266 19.8838 85.2637 20.1416C85.8079 20.3994 86.4382 20.5283 87.1543 20.5283C87.8776 20.5283 88.5078 20.3994 89.0449 20.1416C89.5892 19.8838 90.0117 19.4899 90.3125 18.96C90.6133 18.43 90.7637 17.7568 90.7637 16.9404V6.35938ZM98.3176 12.8584V22H96.3303V10.377H98.2102L98.3176 12.8584ZM97.8449 15.748L97.0178 15.7158C97.0249 14.9209 97.1431 14.1868 97.3723 13.5137C97.6014 12.8333 97.9237 12.2425 98.3391 11.7412C98.7544 11.2399 99.2486 10.8532 99.8215 10.5811C100.402 10.3018 101.043 10.1621 101.744 10.1621C102.317 10.1621 102.833 10.2409 103.291 10.3984C103.75 10.5488 104.14 10.7923 104.462 11.1289C104.792 11.4655 105.042 11.9023 105.214 12.4395C105.386 12.9694 105.472 13.6175 105.472 14.3838V22H103.474V14.3623C103.474 13.7536 103.384 13.2666 103.205 12.9014C103.026 12.529 102.765 12.2604 102.421 12.0957C102.077 11.9238 101.655 11.8379 101.154 11.8379C100.659 11.8379 100.208 11.9417 99.8 12.1494C99.399 12.3571 99.0516 12.6436 98.758 13.0088C98.4715 13.374 98.246 13.793 98.0813 14.2656C97.9237 14.7311 97.8449 15.2253 97.8449 15.748ZM111.2 10.377V22H109.202V10.377H111.2ZM109.051 7.29395C109.051 6.97168 109.148 6.69954 109.341 6.47754C109.542 6.25553 109.835 6.14453 110.222 6.14453C110.602 6.14453 110.892 6.25553 111.092 6.47754C111.3 6.69954 111.404 6.97168 111.404 7.29395C111.404 7.60189 111.3 7.86686 111.092 8.08887C110.892 8.30371 110.602 8.41113 110.222 8.41113C109.835 8.41113 109.542 8.30371 109.341 8.08887C109.148 7.86686 109.051 7.60189 109.051 7.29395ZM119.806 10.377V11.9023H113.522V10.377H119.806ZM115.649 7.55176H117.636V19.1211C117.636 19.515 117.697 19.8122 117.819 20.0127C117.941 20.2132 118.098 20.3457 118.292 20.4102C118.485 20.4746 118.693 20.5068 118.915 20.5068C119.079 20.5068 119.251 20.4925 119.43 20.4639C119.616 20.4281 119.756 20.3994 119.849 20.3779L119.86 22C119.702 22.0501 119.495 22.0967 119.237 22.1396C118.986 22.1898 118.682 22.2148 118.324 22.2148C117.837 22.2148 117.389 22.1182 116.981 21.9248C116.573 21.7314 116.247 21.4092 116.004 20.958C115.767 20.4997 115.649 19.8838 115.649 19.1104V7.55176ZM131.068 6.35938V22H128.995V6.35938H131.068ZM137.621 13.3955V15.0928H130.617V13.3955H137.621ZM138.685 6.35938V8.05664H130.617V6.35938H138.685ZM148.279 19.3145V10.377H150.278V22H148.376L148.279 19.3145ZM148.655 16.8652L149.483 16.8438C149.483 17.6172 149.4 18.3333 149.236 18.9922C149.078 19.6439 148.82 20.2096 148.462 20.6895C148.104 21.1693 147.635 21.5452 147.055 21.8174C146.475 22.0824 145.769 22.2148 144.939 22.2148C144.373 22.2148 143.854 22.1325 143.381 21.9678C142.916 21.8031 142.515 21.5488 142.178 21.2051C141.841 20.8613 141.58 20.4137 141.394 19.8623C141.215 19.3109 141.125 18.6484 141.125 17.875V10.377H143.112V17.8965C143.112 18.4193 143.17 18.8525 143.284 19.1963C143.406 19.5329 143.567 19.8014 143.768 20.002C143.975 20.1953 144.205 20.3314 144.455 20.4102C144.713 20.4889 144.978 20.5283 145.25 20.5283C146.095 20.5283 146.765 20.3672 147.259 20.0449C147.753 19.7155 148.108 19.2751 148.322 18.7236C148.544 18.165 148.655 17.5456 148.655 16.8652ZM158.723 10.377V11.9023H152.439V10.377H158.723ZM154.566 7.55176H156.553V19.1211C156.553 19.515 156.614 19.8122 156.736 20.0127C156.857 20.2132 157.015 20.3457 157.208 20.4102C157.402 20.4746 157.609 20.5068 157.831 20.5068C157.996 20.5068 158.168 20.4925 158.347 20.4639C158.533 20.4281 158.673 20.3994 158.766 20.3779L158.777 22C158.619 22.0501 158.412 22.0967 158.154 22.1396C157.903 22.1898 157.599 22.2148 157.241 22.2148C156.754 22.2148 156.306 22.1182 155.898 21.9248C155.49 21.7314 155.164 21.4092 154.92 20.958C154.684 20.4997 154.566 19.8838 154.566 19.1104V7.55176ZM168.715 19.3145V10.377H170.713V22H168.812L168.715 19.3145ZM169.091 16.8652L169.919 16.8438C169.919 17.6172 169.836 18.3333 169.671 18.9922C169.514 19.6439 169.256 20.2096 168.898 20.6895C168.54 21.1693 168.071 21.5452 167.491 21.8174C166.911 22.0824 166.205 22.2148 165.375 22.2148C164.809 22.2148 164.29 22.1325 163.817 21.9678C163.351 21.8031 162.95 21.5488 162.614 21.2051C162.277 20.8613 162.016 20.4137 161.83 19.8623C161.651 19.3109 161.561 18.6484 161.561 17.875V10.377H163.548V17.8965C163.548 18.4193 163.606 18.8525 163.72 19.1963C163.842 19.5329 164.003 19.8014 164.204 20.002C164.411 20.1953 164.641 20.3314 164.891 20.4102C165.149 20.4889 165.414 20.5283 165.686 20.5283C166.531 20.5283 167.201 20.3672 167.695 20.0449C168.189 19.7155 168.544 19.2751 168.758 18.7236C168.98 18.165 169.091 17.5456 169.091 16.8652ZM176.28 12.2031V22H174.293V10.377H176.226L176.28 12.2031ZM179.911 10.3125L179.9 12.1602C179.735 12.1243 179.578 12.1029 179.428 12.0957C179.284 12.0814 179.12 12.0742 178.933 12.0742C178.475 12.0742 178.07 12.1458 177.72 12.2891C177.369 12.4323 177.071 12.6328 176.828 12.8906C176.584 13.1484 176.391 13.4564 176.248 13.8145C176.112 14.1654 176.022 14.5521 175.979 14.9746L175.421 15.2969C175.421 14.5951 175.489 13.9362 175.625 13.3203C175.768 12.7044 175.986 12.1602 176.28 11.6875C176.574 11.2077 176.946 10.8353 177.397 10.5703C177.856 10.2982 178.4 10.1621 179.03 10.1621C179.173 10.1621 179.338 10.18 179.524 10.2158C179.71 10.2445 179.839 10.2767 179.911 10.3125ZM186.906 22.2148C186.097 22.2148 185.363 22.0788 184.704 21.8066C184.052 21.5273 183.49 21.137 183.018 20.6357C182.552 20.1344 182.194 19.54 181.943 18.8525C181.693 18.165 181.567 17.4131 181.567 16.5967V16.1455C181.567 15.2002 181.707 14.3587 181.986 13.6211C182.266 12.8763 182.645 12.2461 183.125 11.7305C183.605 11.2148 184.149 10.8245 184.758 10.5596C185.367 10.2946 185.997 10.1621 186.648 10.1621C187.479 10.1621 188.195 10.3053 188.797 10.5918C189.406 10.8783 189.903 11.2793 190.29 11.7949C190.677 12.3034 190.963 12.9049 191.149 13.5996C191.336 14.2871 191.429 15.0391 191.429 15.8555V16.7471H182.749V15.125H189.441V14.9746C189.413 14.459 189.305 13.9577 189.119 13.4707C188.94 12.9837 188.654 12.5827 188.26 12.2676C187.866 11.9525 187.329 11.7949 186.648 11.7949C186.197 11.7949 185.782 11.8916 185.402 12.085C185.023 12.2712 184.697 12.5505 184.425 12.9229C184.153 13.2952 183.941 13.75 183.791 14.2871C183.641 14.8242 183.565 15.4437 183.565 16.1455V16.5967C183.565 17.1481 183.641 17.6673 183.791 18.1543C183.949 18.6341 184.174 19.0566 184.468 19.4219C184.769 19.7871 185.13 20.0736 185.553 20.2812C185.982 20.4889 186.469 20.5928 187.014 20.5928C187.715 20.5928 188.31 20.4495 188.797 20.1631C189.284 19.8766 189.71 19.4935 190.075 19.0137L191.278 19.9697C191.028 20.3493 190.709 20.7109 190.322 21.0547C189.936 21.3984 189.459 21.6777 188.894 21.8926C188.335 22.1074 187.673 22.2148 186.906 22.2148ZM86.2627 48H82.7178L82.7393 46.8721H86.2627C87.387 46.8721 88.3538 46.6214 89.1631 46.1201C89.9795 45.6117 90.6097 44.9098 91.0537 44.0146C91.4977 43.1195 91.7197 42.0811 91.7197 40.8994V39.4385C91.7197 38.5361 91.5908 37.7197 91.333 36.9893C91.0824 36.2588 90.7207 35.6357 90.248 35.1201C89.7754 34.5973 89.2096 34.1963 88.5508 33.917C87.8991 33.6377 87.1686 33.498 86.3594 33.498H82.6533V32.3594H86.3594C87.3333 32.3594 88.2249 32.5277 89.0342 32.8643C89.8506 33.1937 90.556 33.6735 91.1504 34.3037C91.752 34.9268 92.2139 35.6751 92.5361 36.5488C92.8656 37.4225 93.0303 38.3965 93.0303 39.4707V40.8994C93.0303 41.9736 92.8656 42.9476 92.5361 43.8213C92.2139 44.695 91.752 45.4434 91.1504 46.0664C90.5488 46.6895 89.8363 47.1693 89.0127 47.5059C88.1891 47.8353 87.2725 48 86.2627 48ZM83.3086 32.3594V48H81.9873V32.3594H83.3086ZM101.143 48.2148C100.384 48.2148 99.6854 48.0752 99.048 47.7959C98.4178 47.5166 97.8664 47.1227 97.3938 46.6143C96.9283 46.1058 96.5666 45.5042 96.3088 44.8096C96.0581 44.1077 95.9328 43.3415 95.9328 42.5107V42.0488C95.9328 41.1536 96.0653 40.3444 96.3303 39.6211C96.5952 38.8978 96.9605 38.2783 97.426 37.7627C97.8915 37.2471 98.4214 36.8532 99.0158 36.5811C99.6174 36.3018 100.248 36.1621 100.906 36.1621C101.644 36.1621 102.299 36.2946 102.872 36.5596C103.445 36.8174 103.925 37.1862 104.312 37.666C104.706 38.1387 105.003 38.7008 105.203 39.3525C105.404 39.9971 105.504 40.7096 105.504 41.4902V42.2744H96.7063V41.1787H104.226V41.0283C104.211 40.3766 104.079 39.7679 103.828 39.2021C103.585 38.6292 103.22 38.1637 102.733 37.8057C102.246 37.4476 101.637 37.2686 100.906 37.2686C100.362 37.2686 99.8609 37.3831 99.4025 37.6123C98.9514 37.8415 98.5611 38.1709 98.2316 38.6006C97.9094 39.0231 97.6587 39.528 97.4797 40.1152C97.3078 40.6953 97.2219 41.3398 97.2219 42.0488V42.5107C97.2219 43.1553 97.315 43.7568 97.5012 44.3154C97.6945 44.8669 97.9667 45.3538 98.3176 45.7764C98.6757 46.1989 99.0982 46.5283 99.5852 46.7646C100.072 47.001 100.609 47.1191 101.196 47.1191C101.884 47.1191 102.493 46.9938 103.023 46.7432C103.553 46.4854 104.029 46.0807 104.451 45.5293L105.257 46.1523C105.006 46.5247 104.691 46.8685 104.312 47.1836C103.939 47.4987 103.492 47.7493 102.969 47.9355C102.446 48.1217 101.837 48.2148 101.143 48.2148ZM111.866 46.7646L115.593 36.377H116.914L112.564 48H111.629L111.866 46.7646ZM108.493 36.377L112.263 46.7969L112.467 48H111.522L107.161 36.377H108.493ZM123.921 48.2148C123.161 48.2148 122.463 48.0752 121.826 47.7959C121.196 47.5166 120.644 47.1227 120.171 46.6143C119.706 46.1058 119.344 45.5042 119.087 44.8096C118.836 44.1077 118.711 43.3415 118.711 42.5107V42.0488C118.711 41.1536 118.843 40.3444 119.108 39.6211C119.373 38.8978 119.738 38.2783 120.204 37.7627C120.669 37.2471 121.199 36.8532 121.794 36.5811C122.395 36.3018 123.025 36.1621 123.684 36.1621C124.422 36.1621 125.077 36.2946 125.65 36.5596C126.223 36.8174 126.703 37.1862 127.089 37.666C127.483 38.1387 127.781 38.7008 127.981 39.3525C128.182 39.9971 128.282 40.7096 128.282 41.4902V42.2744H119.484V41.1787H127.004V41.0283C126.989 40.3766 126.857 39.7679 126.606 39.2021C126.363 38.6292 125.997 38.1637 125.51 37.8057C125.023 37.4476 124.415 37.2686 123.684 37.2686C123.14 37.2686 122.639 37.3831 122.18 37.6123C121.729 37.8415 121.339 38.1709 121.009 38.6006C120.687 39.0231 120.436 39.528 120.257 40.1152C120.086 40.6953 120 41.3398 120 42.0488V42.5107C120 43.1553 120.093 43.7568 120.279 44.3154C120.472 44.8669 120.744 45.3538 121.095 45.7764C121.453 46.1989 121.876 46.5283 122.363 46.7646C122.85 47.001 123.387 47.1191 123.974 47.1191C124.662 47.1191 125.27 46.9938 125.8 46.7432C126.33 46.4854 126.807 46.0807 127.229 45.5293L128.035 46.1523C127.784 46.5247 127.469 46.8685 127.089 47.1836C126.717 47.4987 126.269 47.7493 125.747 47.9355C125.224 48.1217 124.615 48.2148 123.921 48.2148ZM132.796 31.5V48H131.517V31.5H132.796ZM136.149 42.3711V42.0166C136.149 41.1715 136.271 40.391 136.515 39.6748C136.758 38.9587 137.105 38.3392 137.557 37.8164C138.015 37.2936 138.563 36.889 139.2 36.6025C139.838 36.3089 140.547 36.1621 141.327 36.1621C142.115 36.1621 142.827 36.3089 143.465 36.6025C144.102 36.889 144.65 37.2936 145.108 37.8164C145.567 38.3392 145.918 38.9587 146.161 39.6748C146.405 40.391 146.526 41.1715 146.526 42.0166V42.3711C146.526 43.2161 146.405 43.9967 146.161 44.7129C145.918 45.4219 145.567 46.0378 145.108 46.5605C144.657 47.0833 144.113 47.4915 143.476 47.7852C142.838 48.0716 142.129 48.2148 141.349 48.2148C140.561 48.2148 139.848 48.0716 139.211 47.7852C138.574 47.4915 138.026 47.0833 137.567 46.5605C137.109 46.0378 136.758 45.4219 136.515 44.7129C136.271 43.9967 136.149 43.2161 136.149 42.3711ZM137.428 42.0166V42.3711C137.428 43.0085 137.514 43.6136 137.686 44.1865C137.857 44.7523 138.108 45.2572 138.438 45.7012C138.767 46.138 139.175 46.4818 139.662 46.7324C140.149 46.9831 140.711 47.1084 141.349 47.1084C141.979 47.1084 142.534 46.9831 143.014 46.7324C143.501 46.4818 143.909 46.138 144.238 45.7012C144.568 45.2572 144.815 44.7523 144.979 44.1865C145.151 43.6136 145.237 43.0085 145.237 42.3711V42.0166C145.237 41.3864 145.151 40.7884 144.979 40.2227C144.815 39.6569 144.564 39.152 144.228 38.708C143.898 38.264 143.49 37.9131 143.003 37.6553C142.516 37.3975 141.957 37.2686 141.327 37.2686C140.697 37.2686 140.138 37.3975 139.651 37.6553C139.172 37.9131 138.763 38.264 138.427 38.708C138.097 39.152 137.847 39.6569 137.675 40.2227C137.51 40.7884 137.428 41.3864 137.428 42.0166ZM151.008 38.6113V52.4688H149.719V36.377H150.922L151.008 38.6113ZM159.086 42.0811V42.3066C159.086 43.1732 158.986 43.9681 158.785 44.6914C158.585 45.4147 158.295 46.0413 157.915 46.5713C157.543 47.0941 157.081 47.4987 156.529 47.7852C155.978 48.0716 155.351 48.2148 154.65 48.2148C153.955 48.2148 153.335 48.1074 152.791 47.8926C152.247 47.6777 151.778 47.3734 151.384 46.9795C150.997 46.5785 150.686 46.113 150.449 45.583C150.22 45.0459 150.059 44.4587 149.966 43.8213V40.8457C150.073 40.1439 150.249 39.5065 150.492 38.9336C150.736 38.3607 151.047 37.8665 151.427 37.4512C151.814 37.0358 152.272 36.7171 152.802 36.4951C153.332 36.2731 153.937 36.1621 154.617 36.1621C155.326 36.1621 155.957 36.3018 156.508 36.5811C157.067 36.8532 157.536 37.2507 157.915 37.7734C158.302 38.2891 158.592 38.9121 158.785 39.6426C158.986 40.3659 159.086 41.1787 159.086 42.0811ZM157.797 42.3066V42.0811C157.797 41.4007 157.725 40.7705 157.582 40.1904C157.446 39.6104 157.235 39.1055 156.948 38.6758C156.669 38.2389 156.311 37.8988 155.874 37.6553C155.445 37.4118 154.932 37.29 154.338 37.29C153.722 37.29 153.196 37.3939 152.759 37.6016C152.329 37.8021 151.971 38.0706 151.685 38.4072C151.398 38.7367 151.173 39.0983 151.008 39.4922C150.843 39.8861 150.722 40.2728 150.643 40.6523V44.0791C150.779 44.6234 150.997 45.1283 151.298 45.5938C151.599 46.0521 152 46.4209 152.501 46.7002C153.01 46.9723 153.629 47.1084 154.36 47.1084C154.947 47.1084 155.455 46.9867 155.885 46.7432C156.315 46.4997 156.669 46.1595 156.948 45.7227C157.235 45.2858 157.446 44.7773 157.582 44.1973C157.725 43.6172 157.797 42.987 157.797 42.3066ZM163.707 38.7832V48H162.418V36.377H163.654L163.707 38.7832ZM163.471 41.4688L162.848 41.1465C162.891 40.459 163.02 39.8145 163.235 39.2129C163.457 38.6113 163.765 38.0814 164.159 37.623C164.552 37.1647 165.025 36.8066 165.577 36.5488C166.128 36.291 166.755 36.1621 167.456 36.1621C168.022 36.1621 168.534 36.2409 168.993 36.3984C169.458 36.5488 169.852 36.7887 170.174 37.1182C170.504 37.4404 170.758 37.863 170.937 38.3857C171.116 38.9085 171.205 39.5352 171.205 40.2656V48H169.927V40.3086C169.927 39.5352 169.805 38.93 169.562 38.4932C169.326 38.0563 168.993 37.7448 168.563 37.5586C168.14 37.3724 167.65 37.2793 167.091 37.2793C166.432 37.2793 165.874 37.4154 165.415 37.6875C164.964 37.9525 164.595 38.2998 164.309 38.7295C164.03 39.152 163.822 39.6068 163.686 40.0938C163.55 40.5736 163.478 41.0319 163.471 41.4688ZM171.195 40.459L170.335 40.4805C170.371 39.9147 170.5 39.374 170.722 38.8584C170.951 38.3428 171.263 37.8844 171.657 37.4834C172.051 37.0752 172.52 36.7529 173.064 36.5166C173.615 36.2803 174.235 36.1621 174.922 36.1621C175.524 36.1621 176.061 36.2445 176.534 36.4092C177.006 36.5667 177.404 36.821 177.726 37.1719C178.055 37.5156 178.306 37.9561 178.478 38.4932C178.65 39.0303 178.736 39.6748 178.736 40.4268V48H177.447V40.416C177.447 39.5924 177.325 38.9551 177.081 38.5039C176.845 38.0456 176.516 37.7269 176.093 37.5479C175.671 37.3688 175.176 37.2793 174.611 37.2793C174.052 37.2865 173.562 37.3903 173.139 37.5908C172.717 37.7842 172.362 38.042 172.076 38.3643C171.796 38.6794 171.581 39.0195 171.431 39.3848C171.288 39.75 171.209 40.1081 171.195 40.459ZM187.042 48.2148C186.282 48.2148 185.584 48.0752 184.947 47.7959C184.317 47.5166 183.765 47.1227 183.293 46.6143C182.827 46.1058 182.465 45.5042 182.208 44.8096C181.957 44.1077 181.832 43.3415 181.832 42.5107V42.0488C181.832 41.1536 181.964 40.3444 182.229 39.6211C182.494 38.8978 182.859 38.2783 183.325 37.7627C183.79 37.2471 184.32 36.8532 184.915 36.5811C185.516 36.3018 186.146 36.1621 186.805 36.1621C187.543 36.1621 188.198 36.2946 188.771 36.5596C189.344 36.8174 189.824 37.1862 190.211 37.666C190.604 38.1387 190.902 38.7008 191.102 39.3525C191.303 39.9971 191.403 40.7096 191.403 41.4902V42.2744H182.605V41.1787H190.125V41.0283C190.11 40.3766 189.978 39.7679 189.727 39.2021C189.484 38.6292 189.118 38.1637 188.631 37.8057C188.144 37.4476 187.536 37.2686 186.805 37.2686C186.261 37.2686 185.76 37.3831 185.301 37.6123C184.85 37.8415 184.46 38.1709 184.13 38.6006C183.808 39.0231 183.558 39.528 183.379 40.1152C183.207 40.6953 183.121 41.3398 183.121 42.0488V42.5107C183.121 43.1553 183.214 43.7568 183.4 44.3154C183.593 44.8669 183.865 45.3538 184.216 45.7764C184.574 46.1989 184.997 46.5283 185.484 46.7646C185.971 47.001 186.508 47.1191 187.095 47.1191C187.783 47.1191 188.392 46.9938 188.921 46.7432C189.451 46.4854 189.928 46.0807 190.35 45.5293L191.156 46.1523C190.905 46.5247 190.59 46.8685 190.211 47.1836C189.838 47.4987 189.391 47.7493 188.868 47.9355C188.345 48.1217 187.736 48.2148 187.042 48.2148ZM195.766 38.8584V48H194.488V36.377H195.713L195.766 38.8584ZM195.476 41.4688L194.907 41.1465C194.95 40.459 195.09 39.8145 195.326 39.2129C195.562 38.6113 195.881 38.0814 196.282 37.623C196.69 37.1647 197.166 36.8066 197.711 36.5488C198.262 36.291 198.871 36.1621 199.537 36.1621C200.117 36.1621 200.636 36.2409 201.095 36.3984C201.553 36.556 201.943 36.8066 202.265 37.1504C202.588 37.4941 202.831 37.9346 202.996 38.4717C203.168 39.0088 203.254 39.6641 203.254 40.4375V48H201.965V40.4268C201.965 39.6247 201.854 38.998 201.632 38.5469C201.41 38.0885 201.095 37.7627 200.686 37.5693C200.278 37.376 199.795 37.2793 199.236 37.2793C198.62 37.2793 198.08 37.4154 197.614 37.6875C197.156 37.9525 196.769 38.2998 196.454 38.7295C196.146 39.152 195.91 39.6068 195.745 40.0938C195.58 40.5736 195.491 41.0319 195.476 41.4688ZM211.527 36.377V37.4297H205.705V36.377H211.527ZM207.843 33.3906H209.121V45.1748C209.121 45.7119 209.193 46.1165 209.336 46.3887C209.479 46.6608 209.665 46.8434 209.895 46.9365C210.124 47.0296 210.371 47.0762 210.636 47.0762C210.829 47.0762 211.015 47.0654 211.194 47.0439C211.373 47.0153 211.535 46.9867 211.678 46.958L211.731 48.043C211.574 48.0931 211.37 48.1325 211.119 48.1611C210.868 48.1969 210.618 48.2148 210.367 48.2148C209.873 48.2148 209.436 48.1253 209.057 47.9463C208.677 47.7601 208.38 47.445 208.165 47.001C207.95 46.5498 207.843 45.9375 207.843 45.1641V33.3906Z" fill="#FBF8F3"/>
<defs>
<clipPath id="clip0_501_5406">
<rect width="68" height="48" fill="white" transform="translate(0 1)"/>
</clipPath>
</defs>
</svg>
